<svg xmlns="http://www.w3.org/2000/svg" viewBox="0 0 100 100">
  <path d="M50,4.5L51.6,7.2L50.8,8.5L53.1,9.9L54.7,12.6L53.9,13.9L53.1,13.9L53.1,15.3L52.3,16.6L54.7,18L54.7,19.3L57,19.3L59.3,20.7L60.9,23.4L60.1,24.7L62.4,26.1L64,28.8L63.2,30.1L62.4,30.1L62.4,31.4L61.7,32.8L60.9,32.8L60.7,32.5L60.1,32.8L59.3,32.8L59.3,34.1L58.8,34.5L59.3,35.5L59.3,36.8L58.6,38.2L57.8,38.2L57.8,39.5L57,40.9L59.3,42.2L59.3,43.6L61.7,43.6L64,44.9L64,46.3L63.4,46.6L64,47.6L64,49L66.3,49L66.9,50L68.7,49L71,49L73.3,50.3L73.3,51.7L75.7,51.7L78,53L79.6,55.7L78.8,57L81.1,58.4L82.7,61.1L81.9,62.4L81.1,62.4L81.1,63.8L80.3,65.1L82.7,66.5L82.7,67.8L85,67.8L87.3,69.2L88.9,71.9L88.1,73.2L90.4,74.6L92,77.2L88.9,77.2L88.1,75.9L85.8,77.2L82.7,77.2L81.9,75.9L82.3,75.2L81.1,74.6L80.3,73.2L78,74.6L76.8,73.9L75.7,75.9L73.3,77.2L70.2,77.2L69.4,75.9L67.1,77.2L64,77.2L63.2,75.9L63.6,75.2L62.4,74.6L61.7,73.2L62.1,72.5L62.4,72.5L62.4,71.9L62.8,71.2L61.7,70.5L61.7,69.8L60.5,69.8L59.3,69.2L58.6,67.8L58.9,67.1L57.8,66.5L57,65.1L54.7,66.5L53.5,65.8L52.3,67.8L50,69.2L48.8,68.5L48.8,67.8L47.7,67.8L46.5,67.1L45.3,69.2L44.2,69.2L44.2,71.2L43,73.2L40.7,74.6L39.5,73.9L38.3,75.9L36,77.2L32.9,77.2L32.1,75.9L29.8,77.2L26.7,77.2L25.9,75.9L26.3,75.2L25.1,74.6L24.3,73.2L22,74.6L20.8,73.9L19.7,75.9L17.3,77.2L14.2,77.2L13.4,75.9L11.1,77.2L8,77.2L9.6,74.6L11.1,74.6L11.1,71.9L12.7,69.2L14.2,69.2L14.6,69.8L15.8,69.2L17.3,69.2L17.3,66.5L18.5,65.8L17.3,63.8L17.3,61.1L18.9,58.4L20.4,58.4L20.4,55.7L22,53L23.6,53L23.9,53.7L25.1,53L26.7,53L27.1,53.7L26.9,54L27.4,54.3L27.8,55L29,54.3L29.6,54.7L30.2,53.7L31.3,53L32.9,53L33.3,53.7L34.4,53L36,53L36,50.3L37.2,49.6L36,47.6L36,44.9L37.2,44.2L37.8,44.6L38.3,43.6L39.5,42.9L38.3,40.9L38.9,39.9L37.2,38.9L36,36.8L36,34.1L37.2,33.5L36,31.4L36,28.8L37.6,26.1L39.1,26.1L39.1,23.4L40.7,20.7L42.2,20.7L42.6,21.3L43.8,20.7L45.3,20.7L45.3,18L46.5,17.3L45.3,15.3L45.3,12.6L46.9,9.9L48.4,9.9L48.4,7.2Z" fill="#c94925"/>
</svg>
